<svg width="37px" height="27px" viewBox="0 0 37 27" version="1.1">
    <defs>
        <rect id="path-1" x="0" y="0" width="36.1156123" height="27" rx="1.80006612"></rect>
        <path d="M10.886788,27 L34.3214425,27 C35.3123351,27 36.1156123,26.1956029 36.1156123,25.1939502 L36.1156123,18.2835706 C36.1156123,18.2835706 27.2054461,24.3050636 10.886788,27 Z" id="path-3"></path>
    </defs>
    <g id="Page-1" stroke="none" stroke-width="1" fill="none" fill-rule="evenodd">
        <g id="Payment-Form-Desktop" transform="translate(-609.000000, -154.000000)">
            <g id="Group-2" transform="translate(220.000000, 41.000000)">
                <g id="Group-5" transform="translate(0.000000, 58.000000)">
                    <g id="Group" transform="translate(305.000000, 55.000000)">
                        <g id="Discover-dark" transform="translate(84.254214, 0.000000)">
                            <g id="Rectangle">
                                <mask id="mask-2" fill="white">
                                    <use xlink:href="#path-1"></use>
                                </mask>
                                <rect stroke="#E6772F" stroke-width="0.900033059" x="0.45001653" y="0.45001653" width="35.2155792" height="26.0999669" rx="1.80006612"></rect>
                                <mask id="mask-4" fill="white">
                                    <use xlink:href="#path-3"></use>
                                </mask>
                                <use id="Mask" fill="#E6772F" xlink:href="#path-3"></use>
                            </g>
                            <path d="M5.2558242,13.7365858 C4.95207479,13.9836554 4.56539817,14.0916942 3.94705795,14.0916942 L3.69047814,14.0916942 L3.69047814,11.1433072 L3.94705795,11.1433072 C4.56539817,11.1433072 4.93723919,11.2440742 5.2558242,11.5034366 C5.58468001,11.7714561 5.78229782,12.1849125 5.78229782,12.6125662 C5.78229782,13.0422977 5.58468001,13.4704709 5.2558242,13.7365858 L5.2558242,13.7365858 Z M4.13858935,10.388074 L2.7347231,10.388074 L2.7347231,14.8472736 L4.13003035,14.8472736 C4.87257118,14.8472736 5.40855481,14.6864273 5.87834882,14.331492 C6.43639565,13.9111101 6.76753386,13.2763818 6.76753386,12.6187992 C6.76753386,11.3024221 5.68719782,10.388074 4.13858935,10.388074 L4.13858935,10.388074 Z" id="Fill-13" fill="#1A1919"></path>
                            <polygon id="Fill-14" fill="#1A1919" points="7.20822728 10.388074 8.16017831 10.388074 8.16017831 14.8472736 7.20822728 14.8472736"></polygon>
                            <path d="M10.4979266,12.0971309 C9.92333238,11.9052927 9.75538578,11.777516 9.75538578,11.5365062 C9.75538578,11.256367 10.0555214,11.0439253 10.4682554,11.0439253 C10.7543162,11.0439253 10.989974,11.148155 11.241038,11.4028428 L11.7380307,10.8093217 C11.3273888,10.4803572 10.835912,10.3137973 10.3001186,10.3137973 C9.43318696,10.3137973 8.77243214,10.8628217 8.77243214,11.5887943 C8.77243214,12.2051697 9.07960515,12.5178591 9.97601779,12.8147928 C10.3507118,12.9333931 10.541102,13.0144223 10.6375334,13.0693074 C10.8284942,13.1816747 10.9235942,13.3426941 10.9235942,13.5288188 C10.9235942,13.8915453 10.6078622,14.1581797 10.1810534,14.1581797 C9.72666558,14.1581797 9.35900896,13.9511052 9.13894755,13.5622346 L8.52307993,14.1051991 C8.96339295,14.6924872 9.49119797,14.9549662 10.2183326,14.9549662 C11.2100354,14.9549662 11.9088303,14.3505373 11.9088303,13.4896893 C11.9088303,12.7803381 11.5847294,12.4588186 10.4979266,12.0971309" id="Fill-15" fill="#1A1919"></path>
                            <path d="M12.2089659,12.6187992 C12.2089659,13.9301554 13.3397049,14.9463092 14.7953056,14.9463092 C15.2057572,14.9463092 15.5576272,14.8725519 15.9909028,14.6864273 L15.9909028,13.6616165 C15.6080302,14.0118771 15.2719468,14.1500421 14.8371496,14.1500421 C13.8753081,14.1500421 13.1940117,13.5165259 13.1940117,12.6125662 C13.1940117,11.7584707 13.8973713,11.0818427 14.7953056,11.0818427 C15.248362,11.0818427 15.594526,11.2279722 15.9909028,11.5834269 L15.9909028,10.5598281 C15.5722726,10.3671242 15.2287714,10.287307 14.8148962,10.287307 C13.3676643,10.287307 12.2089659,11.3233719 12.2089659,12.6187992" id="Fill-16" fill="#1A1919"></path>
                            <polyline id="Fill-17" fill="#1A1919" points="23.7305215 13.3818236 22.4242279 10.388074 21.3826926 10.388074 23.4592963 14.9598141 23.9715049 14.9598141 26.088431 10.388074 25.0550744 10.388074 23.7305215 13.3818236"></polyline>
                            <polyline id="Fill-18" fill="#1A1919" points="26.5218968 14.8472736 29.2309155 14.8472736 29.2309155 14.0916942 27.4776519 14.0916942 27.4776519 12.8880307 29.1643455 12.8880307 29.1643455 12.1326244 27.4776519 12.1326244 27.4776519 11.1433072 29.2309155 11.1433072 29.2309155 10.388074 26.5218968 10.388074 26.5218968 14.8472736"></polyline>
                            <path d="M31.0967776,12.4385614 L30.819466,12.4385614 L30.819466,11.0898071 L31.112374,11.0898071 C31.7092216,11.0898071 32.0289479,11.3178314 32.0289479,11.7522376 C32.0289479,12.1985904 31.7092216,12.4385614 31.0967776,12.4385614 L31.0967776,12.4385614 Z M33.0126623,11.7037587 C33.0126623,10.8687084 32.3834807,10.388074 31.2805108,10.388074 L29.8616188,10.388074 L29.8616188,14.8472736 L30.819466,14.8472736 L30.819466,13.0544174 L30.9436666,13.0544174 L32.2634645,14.8472736 L33.4387103,14.8472736 L31.8975197,12.9678478 C32.6178071,12.8338381 33.0126623,12.3861002 33.0126623,11.7037587 L33.0126623,11.7037587 Z" id="Fill-19" fill="#1A1919"></path>
                            <path d="M21.5173542,12.6291876 C21.5173542,13.9130146 20.3746326,14.9535811 18.9637289,14.9535811 C17.5532057,14.9535811 16.4102938,13.9130146 16.4102938,12.6291876 C16.4102938,11.3451874 17.5532057,10.3044478 18.9637289,10.3044478 C20.3746326,10.3044478 21.5173542,11.3451874 21.5173542,12.6291876" id="Fill-20" fill="#E6772F"></path>
                        </g>
                    </g>
                </g>
            </g>
        </g>
    </g>
</svg>