<svg width="37px" height="27px" viewBox="0 0 37 27">
<g stroke="none" stroke-width="1" fill="none" fill-rule="evenodd">
    <g transform="translate(-567.000000, -154.000000)">
        <g transform="translate(220.000000, 41.000000)">
            <g transform="translate(0.000000, 58.000000)">
                <g transform="translate(305.000000, 55.000000)">
                    <g transform="translate(42.630137, 0.000000)">
                        <rect id="Rectangle" fill="#000066" x="0" y="0" width="36.1156123" height="27" rx="1.80006612"></rect>
                        <path d="M20.9982777,13.718431 C20.9982777,18.568646 17.1120927,22.5 12.3179103,22.5 C7.52359072,22.5 3.63713136,18.568646 3.63713136,13.718431 C3.63713136,8.86835472 7.52359072,4.93658437 12.3179103,4.93658437 C17.1120927,4.93658437 20.9982777,8.86835472 20.9982777,13.718431" id="Fill-333" fill="#CC0000"></path>
                        <path d="M23.9720755,4.93658437 C21.7286264,4.93658437 19.6851864,5.79743544 18.1443756,7.20965862 C17.8309183,7.49748792 17.5383124,7.80835465 17.268204,8.13934446 L19.0220561,8.13934446 C19.2615732,8.43439031 19.4822965,8.74456315 19.6838146,9.06944664 L16.6063084,9.06944664 C16.4222122,9.36796198 16.2548521,9.67813482 16.1061484,9.99954882 L20.1837002,9.99954882 C20.3230755,10.3005622 20.4457148,10.6105963 20.5513438,10.9292347 L15.7385048,10.9292347 C15.6383631,11.2320522 15.55386,11.5423638 15.4863672,11.8587817 L20.8032071,11.8587817 C20.9305105,12.4583104 20.9982777,13.0803215 20.9982777,13.718431 C20.9982777,14.693359 20.8412061,15.631788 20.5513438,16.5081824 L15.7385048,16.5081824 C15.8441338,16.8265432 15.9667731,17.1369936 16.1058741,17.4384233 L20.1837002,17.4384233 C20.0347222,17.7590047 19.8681851,18.0694551 19.6829915,18.3683867 L16.6063084,18.3683867 C16.8070034,18.6922988 17.0281383,19.002888 17.268204,19.2975175 L19.0215074,19.2975175 C18.7519478,19.6287848 18.4590675,19.9396516 18.1446499,20.2274809 C19.6853236,21.6397041 21.7286264,22.5 23.9720755,22.5 C28.7661207,22.5 32.6524429,18.568646 32.6524429,13.718431 C32.6524429,8.86877106 28.7661207,4.93658437 23.9720755,4.93658437" id="Fill-334" fill="#FF9900"></path>
                        <path d="M10.2907948,14.6798974 C10.1918877,14.6685174 10.1482643,14.6649092 10.08036,14.6649092 C9.54617929,14.6649092 9.27607098,14.850319 9.27607098,15.2165588 C9.27607098,15.442076 9.40790139,15.5854355 9.61367207,15.5854355 C9.99764015,15.5854355 10.2743331,15.2157262 10.2907948,14.6798974 L10.2907948,14.6798974 Z M10.9762855,16.2940452 L10.19518,16.2940452 L10.2131506,15.9186458 C9.97500537,16.2150795 9.65715827,16.3566349 9.22545139,16.3566349 C8.71486575,16.3566349 8.36464406,15.9533408 8.36464406,15.3672737 C8.36464406,14.4850505 8.97358808,13.9705939 10.0190403,13.9705939 C10.1261782,13.9705939 10.2630843,13.980586 10.4032827,13.9984886 C10.432365,13.8788604 10.4400471,13.828067 10.4400471,13.7635344 C10.4400471,13.5237229 10.2759793,13.4337936 9.83576722,13.4337936 C9.37470372,13.4290751 8.99443951,13.5452338 8.83819098,13.5971374 C8.84806797,13.536907 8.96892395,12.7823613 8.96892395,12.7823613 C9.43835545,12.6427488 9.74810891,12.5905676 10.0966844,12.5905676 C10.9060491,12.5905676 11.334738,12.9580565 11.3337777,13.6527881 C11.3354239,13.8391694 11.3048327,14.0682948 11.2575054,14.3705572 C11.1757459,14.8951448 11.0001549,16.0202326 10.9762855,16.2940452 L10.9762855,16.2940452 Z" id="Fill-336" fill="#000066"></path>
                        <polyline id="Fill-337" fill="#000066" points="7.97025027 16.2940452 7.02768339 16.2940452 7.5679 12.8700701 6.36222102 16.2940452 5.72007933 16.2940452 5.64065185 12.8892217 5.0732735 16.2940452 4.1912032 16.2940452 4.92799941 11.8396301 6.28320508 11.8396301 6.36510181 14.3329479 7.19188839 11.8396301 8.69909 11.8396301 7.97025027 16.2940452"></polyline>
                        <path d="M25.1364632,14.6798974 C25.0375561,14.6685174 24.9944814,14.6649092 24.9267143,14.6649092 C24.392122,14.6649092 24.1222881,14.850319 24.1222881,15.2165588 C24.1222881,15.442076 24.2535698,15.5854355 24.4598892,15.5854355 C24.8435829,15.5854355 25.1204131,15.2157262 25.1364632,14.6798974 L25.1364632,14.6798974 Z M25.8223654,16.2940452 L25.0415343,16.2940452 L25.0592306,15.9186458 C24.8210853,16.2150795 24.5033754,16.3566349 24.0719429,16.3566349 C23.5606713,16.3566349 23.2108612,15.9533408 23.2108612,15.3672737 C23.2108612,14.4850505 23.8200796,13.9705939 24.8652574,13.9705939 C24.9722582,13.9705939 25.1088899,13.980586 25.2492255,13.9984886 C25.2784449,13.8788604 25.2859899,13.828067 25.2859899,13.7635344 C25.2859899,13.5237229 25.121922,13.4337936 24.68171,13.4337936 C24.2206465,13.4290751 23.8405194,13.5452338 23.6837222,13.5971374 C23.6941479,13.536907 23.8152782,12.7823613 23.8152782,12.7823613 C24.2844354,12.6427488 24.5944632,12.5905676 24.94249,12.5905676 C25.7524034,12.5905676 26.1805436,12.9580565 26.1797205,13.6527881 C26.1813667,13.8391694 26.1510498,14.0682948 26.1034482,14.3705572 C26.021963,14.8951448 25.8459605,16.0202326 25.8223654,16.2940452 L25.8223654,16.2940452 Z" id="Fill-338" fill="#000066"></path>
                        <path d="M15.1644047,16.2389496 C14.9063682,16.3211072 14.7053989,16.3566349 14.4872819,16.3566349 C14.0056414,16.3566349 13.7426665,16.0765772 13.7426665,15.5607327 C13.7359446,15.4005809 13.8119426,14.9793842 13.8717533,14.5952417 C13.9263511,14.2567578 14.280551,12.1231572 14.280551,12.1231572 L15.2170819,12.1231572 L15.1077491,12.6714762 L15.6736185,12.6714762 L15.5459035,13.5421806 L14.9781136,13.5421806 C14.8693295,14.2309447 14.7141784,15.089159 14.7123951,15.2029584 C14.7123951,15.389756 14.8108906,15.4713585 15.0351807,15.4713585 C15.142593,15.4713585 15.2257243,15.4602562 15.2892389,15.4372187 L15.1644047,16.2389496" id="Fill-339" fill="#000066"></path>
                        <path d="M18.0364146,16.2096671 C17.7145892,16.3091722 17.4044242,16.3577451 17.0753283,16.3566349 C16.0265838,16.3552471 15.4799197,15.8015157 15.4799197,14.7405442 C15.4799197,13.5023508 16.1752874,12.5905676 17.1195004,12.5905676 C17.8916892,12.5905676 18.3851273,13.1009997 18.3851273,13.901204 C18.3851273,14.1672448 18.3513809,14.4264855 18.2694842,14.792309 L16.4041044,14.792309 C16.3411386,15.3178681 16.6733896,15.5367238 17.2186819,15.5367238 C17.5535394,15.5367238 17.8561595,15.4667788 18.1923887,15.3089862 L18.0364146,16.2096671 L18.0364146,16.2096671 Z M17.509916,14.0621885 C17.515266,13.9865535 17.6090975,13.4154747 17.0736822,13.4154747 C16.7757262,13.4154747 16.5621363,13.6455716 16.4755754,14.0621885 L17.509916,14.0621885 L17.509916,14.0621885 Z" id="Fill-340" fill="#000066"></path>
                        <path d="M11.5414689,13.8168258 C11.5414689,14.2746604 11.7609577,14.590662 12.2589227,14.8281142 C12.6404215,15.009777 12.6998207,15.0634847 12.6998207,15.2279388 C12.6998207,15.453456 12.5313631,15.5558754 12.1586438,15.5558754 C11.8772867,15.5558754 11.6158207,15.5111883 11.3141609,15.4125159 C11.3141609,15.4125159 11.1905613,16.2113324 11.1846626,16.2494969 C11.3988013,16.2964044 11.5897565,16.3401201 12.1653656,16.3566349 C13.1596495,16.3566349 13.6189297,15.9736026 13.6189297,15.1457811 C13.6189297,14.6481168 13.4268771,14.3559853 12.9547019,14.1361581 C12.5597594,13.95283 12.5140783,13.9117512 12.5140783,13.7427174 C12.5140783,13.5468991 12.6708756,13.4468389 12.975279,13.4468389 C13.1603354,13.4468389 13.4128847,13.4668232 13.6525389,13.5011018 L13.7865642,12.6609289 C13.5426574,12.6216543 13.1725445,12.5905676 12.9571712,12.5905676 C11.9030766,12.5905676 11.5380394,13.1474909 11.5414689,13.8168258" id="Fill-341" fill="#000066"></path>
                        <path d="M22.6197506,12.6861869 C22.8814909,12.6861869 23.1259465,12.7550216 23.4619014,12.9266922 L23.6162294,11.9599522 C23.4776772,11.9049954 22.9919212,11.5828875 22.5803798,11.5828875 C21.9498985,11.5828875 21.4162665,11.8998605 21.0416267,12.4218114 C20.4945511,12.238622 20.269438,12.6088865 19.9939796,12.9780408 L19.7491125,13.0357732 C19.7676319,12.9143408 19.7845051,12.7937412 19.779155,12.6714762 L18.913272,12.6714762 C18.7952968,13.7929557 18.5858223,14.928452 18.4218916,16.0503478 L18.3789542,16.2940452 L19.3217954,16.2940452 C19.4791414,15.2595806 19.5651535,14.5974622 19.6175564,14.1489259 L19.9725795,13.9499157 C20.0259427,13.749934 20.1915195,13.6827646 20.5245936,13.6909526 C20.4811074,13.9271558 20.4575123,14.1759879 20.4575123,14.4334245 C20.4575123,15.6187427 21.0904629,16.3566349 22.1045008,16.3566349 C22.3658296,16.3566349 22.5902568,16.3219399 22.9377349,16.2261818 L23.1029002,15.2111464 C22.7904031,15.366441 22.5345616,15.439578 22.3025894,15.439578 C21.7546907,15.439578 21.4231255,15.0303164 21.4231255,14.35432 C21.4231255,13.3732856 21.9158777,12.6861869 22.6197506,12.6861869" id="Fill-342" fill="#000066"></path>
                        <path d="M30.59844,11.8396301 L30.3889655,13.1265351 C30.1317521,12.7836103 29.854922,12.5351944 29.4894732,12.5351944 C29.0140058,12.5351944 28.5812015,12.8999077 28.2977867,13.4369855 C27.9031185,13.354134 27.495281,13.2132725 27.495281,13.2132725 L27.4950067,13.216742 C27.526421,12.9165613 27.5397275,12.7339271 27.5365723,12.6714762 L26.6708265,12.6714762 C26.5532629,13.7929557 26.343514,14.928452 26.1797205,16.0503478 L26.1363715,16.2940452 L27.0794871,16.2940452 C27.2067905,15.4580357 27.3040515,14.7630265 27.3757968,14.2126258 C27.6981709,13.9178575 27.8594951,13.6615313 28.1844756,13.6781848 C28.040299,14.0309631 27.9562073,14.4370327 27.9562073,14.8536497 C27.9562073,15.7589103 28.4086285,16.3566349 29.093982,16.3566349 C29.4394024,16.3566349 29.704435,16.2360352 29.962883,15.9568103 L29.9184365,16.2937676 L30.8101094,16.2937676 L31.5279747,11.8396301 L30.59844,11.8396301 L30.59844,11.8396301 Z M29.4199227,15.457203 C29.0991949,15.457203 28.9367732,15.2165588 28.9367732,14.7430422 C28.9367732,14.0309631 29.2403535,13.526221 29.6676706,13.526221 C29.9915537,13.526221 30.1671447,13.7754695 30.1671447,14.2356633 C30.1671447,14.9538487 29.8584886,15.457203 29.4199227,15.457203 L29.4199227,15.457203 Z" id="Fill-343" fill="#000066"></path>
                        <polyline id="Fill-344" fill="#FFFFFF" points="8.24131884 16.0296697 7.29902632 16.0296697 7.83910575 12.6056946 6.63370113 16.0296697 5.99128508 16.0296697 5.91199478 12.6255401 5.34447925 16.0296697 4.46240896 16.0296697 5.19920516 11.5756709 6.55441083 11.5756709 6.59227264 14.3329479 7.50671752 11.5756709 8.97029575 11.5756709 8.24131884 16.0296697"></polyline>
                        <path d="M10.5620005,14.416077 C10.4632306,14.4044195 10.4196072,14.4012276 10.3517029,14.4012276 C9.81752222,14.4012276 9.54727673,14.5863598 9.54727673,14.9523221 C9.54727673,15.1775617 9.67924432,15.3217539 9.88515218,15.3217539 C10.2689831,15.3217539 10.5456761,14.9520446 10.5620005,14.416077 L10.5620005,14.416077 Z M11.2473541,16.0296697 L10.4666601,16.0296697 L10.4844936,15.6545479 C10.2463483,15.9508427 9.9285012,16.0925369 9.49679432,16.0925369 C8.9860715,16.0925369 8.63598699,15.6886877 8.63598699,15.1027594 C8.63598699,14.2203975 9.2450682,13.7066347 10.2905204,13.7066347 C10.397384,13.7066347 10.5342901,13.716488 10.6746257,13.734807 C10.7037079,13.6149012 10.71139,13.5639691 10.71139,13.4991589 C10.71139,13.2594862 10.5473222,13.1702508 10.1071101,13.1702508 C9.64590947,13.1646996 9.26578244,13.2808583 9.10939673,13.3326231 C9.1194109,13.2726703 9.2401297,12.5181245 9.2401297,12.5181245 C9.70969838,12.3787896 10.0194518,12.3261921 10.3680274,12.3261921 C11.1772548,12.3261921 11.6058066,12.6940973 11.6051207,13.3885514 C11.6066297,13.5746551 11.5763128,13.8048908 11.5288483,14.1063205 C11.4469516,14.6304918 11.2713606,15.7562735 11.2473541,16.0296697 L11.2473541,16.0296697 Z" id="Fill-345" fill="#FFFFFF"></path>
                        <path d="M23.887298,11.6955767 L23.73297,12.662178 C23.3964663,12.4910625 23.1526967,12.4218114 22.8912307,12.4218114 C22.1876322,12.4218114 21.6940569,13.1097428 21.6940569,14.0909159 C21.6940569,14.7669123 22.0257593,15.1753412 22.573658,15.1753412 C22.8057673,15.1753412 23.0621576,15.1027594 23.3739687,14.9469097 L23.2083919,15.9619451 C22.8614626,16.0575644 22.6368982,16.0925369 22.3757066,16.0925369 C21.3609828,16.0925369 20.7289925,15.354506 20.7289925,14.1694653 C20.7289925,12.5771059 21.6026948,11.4642308 22.8515856,11.4642308 C23.2631269,11.4642308 23.7491573,11.6406199 23.887298,11.6955767" id="Fill-346" fill="#FFFFFF"></path>
                        <path d="M25.4075317,14.416077 C25.3093105,14.4044195 25.26555,14.4012276 25.1977828,14.4012276 C24.6638765,14.4012276 24.3934938,14.5863598 24.3934938,14.9523221 C24.3934938,15.1775617 24.5253243,15.3217539 24.7310949,15.3217539 C25.1147887,15.3217539 25.391756,14.9520446 25.4075317,14.416077 L25.4075317,14.416077 Z M26.093434,16.0296697 L25.31274,16.0296697 L25.3304363,15.6545479 C25.0922911,15.9508427 24.774444,16.0925369 24.3431486,16.0925369 C23.8318771,16.0925369 23.4822041,15.6886877 23.4822041,15.1027594 C23.4822041,14.2203975 24.0907366,13.7066347 25.1364632,13.7066347 C25.2433267,13.7066347 25.3799585,13.716488 25.5201569,13.734807 C25.5493763,13.6149012 25.5570584,13.5639691 25.5570584,13.4991589 C25.5570584,13.2594862 25.3934022,13.1702508 24.9529157,13.1702508 C24.4921266,13.1646996 24.1121367,13.2808583 23.9554767,13.3326231 C23.9653537,13.2726703 24.0862096,12.5181245 24.0862096,12.5181245 C24.5557783,12.3787896 24.8652574,12.3261921 25.2138329,12.3261921 C26.0230604,12.3261921 26.4520237,12.6940973 26.4509262,13.3885514 C26.4528468,13.5746551 26.4222555,13.8048908 26.3747911,14.1063205 C26.2931687,14.6304918 26.1175778,15.7562735 26.093434,16.0296697 L26.093434,16.0296697 Z" id="Fill-347" fill="#FFFFFF"></path>
                        <path d="M15.4354732,15.9747129 C15.1777112,16.0568705 14.9764674,16.0925369 14.7586249,16.0925369 C14.2768471,16.0925369 14.013735,15.8123405 14.013735,15.2970511 C14.0071504,15.1363441 14.0832855,14.7158413 14.1432334,14.3312825 C14.1974197,13.9925211 14.5517568,11.8591981 14.5517568,11.8591981 L15.4885621,11.8591981 L15.3789549,12.4073783 L15.8599095,12.4073783 L15.731783,13.2778051 L15.2493194,13.2778051 C15.1405353,13.9672631 14.9853842,14.8249223 14.9834636,14.9387217 C14.9834636,15.1260744 15.0823707,15.2071218 15.3063864,15.2071218 C15.4137987,15.2071218 15.4967929,15.1964358 15.5605818,15.1728432 L15.4354732,15.9747129" id="Fill-348" fill="#FFFFFF"></path>
                        <path d="M18.3080319,15.9459854 C17.9860693,16.0457681 17.6752184,16.0928145 17.3465341,16.0925369 C16.2976524,16.091843 15.7513998,15.5374177 15.7513998,14.476585 C15.7513998,13.2379753 16.4466303,12.3261921 17.3901575,12.3261921 C18.1631693,12.3261921 18.656333,12.8366242 18.656333,13.6377999 C18.656333,13.9032857 18.6220379,14.1623875 18.5411014,14.5283498 L16.6754473,14.5283498 C16.6122071,15.0539089 16.9448697,15.273181 17.4896133,15.273181 C17.8247451,15.273181 18.127228,15.2029584 18.4638689,15.0447495 L18.3080319,15.9459854 L18.3080319,15.9459854 Z M17.7813961,13.797813 C17.7864718,13.7220392 17.8807148,13.1512379 17.3454366,13.1512379 C17.0472063,13.1512379 16.8336164,13.3817512 16.7467812,13.797813 L17.7813961,13.797813 L17.7813961,13.797813 Z" id="Fill-349" fill="#FFFFFF"></path>
                        <path d="M11.8125375,13.5524503 C11.8125375,14.0111176 12.0323006,14.3264252 12.5304028,14.564155 C12.9119016,14.745679 12.9710264,14.7993868 12.9710264,14.9639796 C12.9710264,15.1897743 12.802706,15.2916387 12.4297124,15.2916387 C12.1486296,15.2916387 11.8870265,15.2475067 11.5852295,15.1491119 C11.5852295,15.1491119 11.4617671,15.9473732 11.4560055,15.9849826 C11.670007,16.0324453 11.8610994,16.0757445 12.4364342,16.0925369 C13.4309925,16.0925369 13.8902726,15.7096435 13.8902726,14.881822 C13.8902726,14.3838801 13.6979456,14.0918874 13.2259077,13.8726153 C12.830828,13.6887321 12.7854213,13.6480696 12.7854213,13.4787583 C12.7854213,13.28294 12.9420813,13.1821858 13.2467591,13.1821858 C13.431404,13.1821858 13.6842276,13.2030028 13.9237447,13.2371426 L14.0579071,12.3971085 C13.8138631,12.3581114 13.4440246,12.3261921 13.2285141,12.3261921 C12.1741452,12.3261921 11.8093824,12.8832542 11.8125375,13.5524503" id="Fill-350" fill="#FFFFFF"></path>
                        <path d="M31.0813152,16.0296697 L30.1899166,16.0296697 L30.2340887,15.6925735 C29.9755036,15.9719373 29.7106081,16.0925369 29.3651877,16.0925369 C28.6803829,16.0925369 28.2272759,15.4955062 28.2272759,14.5892742 C28.2272759,13.384388 28.929777,12.3687975 29.760679,12.3687975 C30.1261277,12.3687975 30.4028207,12.5197899 30.6605827,12.8628535 L30.8696458,11.5756709 L31.7990433,11.5756709 L31.0813152,16.0296697 L31.0813152,16.0296697 Z M29.6909913,15.1926887 C30.1301059,15.1926887 30.4382132,14.689612 30.4382132,13.9721204 C30.4382132,13.5117879 30.2627594,13.2617067 29.9388764,13.2617067 C29.5114221,13.2617067 29.207979,13.7665876 29.207979,14.4789442 C29.207979,14.953016 29.3705378,15.1926887 29.6909913,15.1926887 L29.6909913,15.1926887 Z" id="Fill-351" fill="#FFFFFF"></path>
                        <path d="M26.9423066,12.4073783 C26.8244686,13.5285802 26.6148569,14.6640765 26.4509262,15.7861111 L26.4079888,16.0296697 L27.3505556,16.0296697 C27.6877452,13.8144666 27.7688188,13.3821675 28.2977867,13.4361529 C28.3818783,12.9827593 28.5386755,12.5857103 28.6554161,12.3855898 C28.2607479,12.3023219 28.040299,12.5279779 27.7513969,12.9568075 C27.7744432,12.7712589 27.8160089,12.5912615 27.8081896,12.4073783 L26.9423066,12.4073783" id="Fill-352" fill="#FFFFFF"></path>
                        <path d="M19.1848893,12.4073783 C19.0665026,13.5285802 18.8566165,14.6640765 18.6929602,15.7861111 L18.6501599,16.0296697 L19.5930011,16.0296697 C19.9303279,13.8144666 20.0111272,13.3821675 20.5392719,13.4361529 C20.6239122,12.9827593 20.7809839,12.5857103 20.8974501,12.3855898 C20.5031934,12.3023219 20.2823329,12.5279779 19.9939796,12.9568075 C20.0167516,12.7712589 20.0585916,12.5912615 20.0503608,12.4073783 L19.1848893,12.4073783" id="Fill-353" fill="#FFFFFF"></path>
                    </g>
                </g>
            </g>
        </g>
    </g>
</g>
</svg>