<svg width="12px" height="12px" viewBox="0 0 12 12" version="1.1">
    <defs>
        <rect id="path-1" x="382" y="104" width="85" height="32" rx="3"></rect>
        <filter x="-1.8%" y="-4.7%" width="103.5%" height="109.4%" filterUnits="objectBoundingBox" id="filter-2">
            <feGaussianBlur stdDeviation="1" in="SourceAlpha" result="shadowBlurInner1"></feGaussianBlur>
            <feOffset dx="1" dy="1" in="shadowBlurInner1" result="shadowOffsetInner1"></feOffset>
            <feComposite in="shadowOffsetInner1" in2="SourceAlpha" operator="arithmetic" k2="-1" k3="1" result="shadowInnerInner1"></feComposite>
            <feColorMatrix values="0 0 0 0 0   0 0 0 0 0   0 0 0 0 0  0 0 0 0.2 0" type="matrix" in="shadowInnerInner1"></feColorMatrix>
        </filter>
    </defs>
    <g stroke="none" stroke-width="1" fill="none" fill-rule="evenodd">
        <g transform="translate(-665.000000, -213.000000)">
            <g transform="translate(220.000000, 41.000000)">
                <g transform="translate(0.000000, 58.000000)">
                    <g id="Rectangle-17-Copy-11">
                        <use fill="#FFFFFF" fill-rule="evenodd" xlink:href="#path-1"></use>
                        <use fill="black" fill-opacity="1" filter="url(#filter-2)" xlink:href="#path-1"></use>
                        <rect stroke="#CCCCCC" stroke-width="1" stroke-linejoin="square" x="382.5" y="104.5" width="84" height="31" rx="3"></rect>
                    </g>
                    <path d="M451,114 C447.69175,114 445,116.69175 445,120 C445,123.30825 447.69175,126 451,126 C454.30825,126 457,123.30825 457,120 C457,116.69175 454.30825,114 451,114 L451,114 Z M451,124.5 C448.51825,124.5 446.5,122.48175 446.5,120 C446.5,117.51825 448.51825,115.5 451,115.5 C453.48175,115.5 455.5,117.51825 455.5,120 C455.5,122.48175 453.48175,124.5 451,124.5 L451,124.5 Z M451,121.5 C451.41475,121.5 451.75,121.83525 451.75,122.25 C451.75,122.66475 451.41475,123 451,123 C450.586,123 450.25,122.66475 450.25,122.25 C450.25,121.83525 450.586,121.5 451,121.5 L451,121.5 Z M452.9065,117.72225 C452.824,117.6315 452.46025,117.345 452.317,117.27975 C452.17375,117.2145 451.7635,117.08775 451.40575,116.99925 C451.40575,116.99925 451.40575,116.99925 450.973,116.99925 L450.63775,116.99925 C450.32125,117.0825 449.6965,117.32475 449.5795,117.41325 C449.4625,117.50175 449.1175,117.858 449.047,117.984 C448.978,118.11 448.79875,118.638 448.7815,118.8555 C448.76425,119.073 449.0875,119.25 449.5,119.25 C449.9125,119.25 450.25,118.9665 450.25,118.80075 C450.25,118.635 450.29425,118.35 450.3025,118.32375 C450.31075,118.2975 450.4435,118.14975 450.5035,118.113 C450.5635,118.07625 450.72925,118.00725 450.87175,117.95925 L451.03525,117.95925 L451.27975,117.95925 C451.45975,118.059 451.7605,118.359 451.77925,118.479 C451.798,118.599 451.798,118.896 451.77175,118.9575 C451.747,119.019 451.62025,119.20575 451.5685,119.25375 C451.51675,119.301 451.31875,119.4585 451.25425,119.5035 C451.18975,119.5485 450.964,119.715 450.90175,119.772 C450.84025,119.82975 450.64,120.0555 450.59125,120.1365 C450.5425,120.2175 450.38125,120.5115 450.33475,120.59625 C450.28825,120.681 450.5875,120.75 451,120.75 C451.4125,120.75 451.77175,120.5715 451.76875,120.5535 C451.76575,120.5355 451.909,120.3705 451.972,120.321 C452.03575,120.2715 452.26825,120.10725 452.3425,120.06075 C452.41675,120.01425 452.66725,119.841 452.73175,119.7795 C452.79775,119.718 453.0025,119.4765 453.04975,119.39025 C453.097,119.304 453.16,119.14575 453.1915,119.04 C453.223,118.93425 453.223,118.347 453.1915,118.24875 C453.16,118.1505 452.989,117.813 452.9065,117.72225 L452.9065,117.72225 Z" id="Shape-Copy-9" fill="#278AE2"></path>
                </g>
            </g>
        </g>
    </g>
</svg>