<svg width="37px" height="27px" viewBox="0 0 37 27" version="1.1">
    <g id="Page-1" stroke="none" stroke-width="1" fill="none" fill-rule="evenodd">
        <g id="Payment-Form-Desktop" transform="translate(-525.000000, -154.000000)">
            <g id="Group-2" transform="translate(220.000000, 41.000000)">
                <g id="Group-5" transform="translate(0.000000, 58.000000)">
                    <g id="Group" transform="translate(305.000000, 55.000000)">
                        <g id="Visa-dark">
                            <rect id="Rectangle" fill="#26337A" x="0" y="0" width="36.1156123" height="27" rx="1.80006612"></rect>
                            <polyline id="Fill-3" fill="#FFFFFE" points="13.3131134 17.7960423 14.7011887 9.21270423 16.9199771 9.21270423 15.5320288 17.7960423 13.3131134 17.7960423"></polyline>
                            <path d="M23.5802764,9.42338028 C23.1415695,9.25111268 22.4515928,9.06325352 21.5920725,9.06325352 C19.398411,9.06325352 17.8542439,10.2280563 17.8414266,11.8959718 C17.8274672,13.1297324 18.9433335,13.8177887 19.7845797,14.2278592 C20.6491762,14.6481972 20.9396593,14.9171831 20.9362329,15.2930282 C20.9302684,15.8678873 20.2461293,16.1312958 19.6081832,16.1312958 C18.7198557,16.1312958 18.2478999,16.0016197 17.5182023,15.681169 L17.2327953,15.5445211 L16.9225152,17.465831 C17.4399025,17.7049014 18.3990425,17.9124085 19.394477,17.9233099 C21.7258292,17.9233099 23.2406815,16.7725775 23.2584481,14.9914648 C23.266443,14.0131268 22.6751976,13.2715775 21.3947368,12.6593239 C20.6193538,12.2612958 20.143464,11.9976338 20.1489209,11.5947887 C20.1494285,11.2380845 20.5509526,10.8561549 21.4199907,10.8561549 C22.1457543,10.844493 22.6711366,11.0115634 23.0805287,11.1859859 L23.2797679,11.2840986 L23.5802764,9.42338028" id="Fill-4" fill="#FFFFFE"></path>
                            <path d="M26.534727,14.7529014 C26.7186108,14.2595493 27.4186129,12.3537042 27.4186129,12.3537042 C27.4056687,12.3763944 27.6014815,11.8565493 27.7135377,11.534831 L27.8632843,12.2751127 C27.8632843,12.2751127 28.289047,14.3238169 28.3767377,14.7529014 L26.534727,14.7529014 L26.534727,14.7529014 Z M29.2720449,9.2214507 L27.5573189,9.2214507 C27.0254645,9.2214507 26.6273669,9.37330986 26.3943713,9.93295775 L23.0993105,17.7990845 L25.4297744,17.7990845 C25.4297744,17.7990845 25.8099786,16.7408873 25.8962733,16.508662 C26.1504619,16.508662 28.4149357,16.5130986 28.7381601,16.5130986 C28.8046577,16.8126338 29.0083386,17.7990845 29.0083386,17.7990845 L31.0677356,17.7990845 L29.2720449,9.2214507 L29.2720449,9.2214507 Z" id="Fill-5" fill="#FFFFFE"></path>
                            <path d="M11.4516865,9.21992958 L9.27997939,15.0717042 L9.04736447,13.8821831 C8.64266782,12.5116479 7.38289243,11.0261408 5.97375111,10.2818028 L7.96055915,17.7885634 L10.3087896,17.787169 L13.8029626,9.21992958 L11.4516865,9.21992958" id="Fill-6" fill="#FFFFFE"></path>
                            <path d="M7.26398344,9.21409859 L3.68592693,9.21409859 L3.65648522,9.39194366 C6.4406307,10.1029437 8.28276825,11.8191549 9.04736447,13.8821831 L8.26982405,9.93828169 C8.13568659,9.39435211 7.74583769,9.23311268 7.26398344,9.21409859" id="Fill-7" fill="#EC982D"></path>
                        </g>
                    </g>
                </g>
            </g>
        </g>
    </g>
</svg>