<svg width="37px" height="27px" viewBox="0 0 37 27" version="1.1">
    <g id="Page-1" stroke="none" stroke-width="1" fill="none" fill-rule="evenodd">
        <g id="Payment-Form-Desktop" transform="translate(-650.000000, -154.000000)">
            <g id="Group-2" transform="translate(220.000000, 41.000000)">
                <g id="Group-5" transform="translate(0.000000, 58.000000)">
                    <g id="Group" transform="translate(305.000000, 55.000000)">
                        <g id="AmericanExpress-dark" transform="translate(125.884351, 0.000000)">
                            <rect id="Rectangle" fill="#0072CE" x="0" y="0" width="36.1156123" height="27" rx="1.80006612"></rect>
                            <path d="M33.5908426,15.5995124 L31.9958684,15.5995124 C31.836625,15.5995124 31.7308308,15.6054388 31.6417119,15.6652513 C31.5493905,15.7241858 31.5138313,15.8116548 31.5138313,15.9271094 C31.5138313,16.0644039 31.5917965,16.1577992 31.7052105,16.1981864 C31.797532,16.230123 31.8967002,16.2394516 32.0424709,16.2394516 L32.5167778,16.2520725 C32.9953915,16.2638156 33.3148722,16.3455776 33.5096749,16.5449893 C33.5451236,16.5727555 33.5664371,16.6039239 33.5908426,16.6350922 L33.5908426,15.5995124 Z M33.5908426,17.9989276 C33.3782604,18.3078675 32.9640287,18.4644776 32.4032533,18.4644776 L30.7131969,18.4644776 L30.7131969,17.6840613 L32.3964065,17.6840613 C32.5633802,17.6840613 32.6802176,17.6622215 32.750563,17.5939584 C32.8115217,17.5376578 32.8540381,17.4558957 32.8540381,17.356574 C32.8540381,17.2505576 32.8115217,17.1663811 32.7471396,17.1158971 C32.683641,17.0603648 32.5912091,17.0351228 32.4388125,17.0351228 C31.6170855,17.0073566 30.5919422,17.0603648 30.5919422,15.9086718 C30.5919422,15.3807851 30.9292025,14.8251322 31.8475578,14.8251322 L33.5907322,14.8251322 L33.5907322,14.1010165 L31.9711316,14.1010165 C31.4823581,14.1010165 31.1273181,14.2173491 30.8758637,14.3982134 L30.8758637,14.1010165 L28.4802551,14.1010165 C28.0971653,14.1010165 27.6474849,14.1953996 27.4347922,14.3982134 L27.4347922,14.1010165 L23.1568645,14.1010165 L23.1568645,14.3982134 C22.8164016,14.1541344 22.2419326,14.1010165 21.9767845,14.1010165 L19.1550176,14.1010165 L19.1550176,14.3982134 C18.8856731,14.1389892 18.2866881,14.1010165 17.9215988,14.1010165 L14.7635654,14.1010165 L14.0408962,14.8782501 L13.3640564,14.1010165 L8.646608,14.1010165 L8.646608,19.1792647 L13.2752688,19.1792647 L14.0199141,18.3897393 L14.7213802,19.1792647 L17.57451,19.1817889 L17.57451,17.9871846 L17.8550081,17.9871846 C18.2335702,17.9930012 18.6800481,17.977856 19.0739602,17.808625 L19.0739602,19.179155 L21.4272733,19.179155 L21.4272733,17.855597 L21.5407977,17.855597 C21.6856849,17.855597 21.6999307,17.8615234 21.6999307,18.0054027 L21.6999307,19.1790452 L28.8488782,19.1790452 C29.3027551,19.1790452 29.7771724,19.0635906 30.0398909,18.8540821 L30.0398909,19.1790452 L32.3075085,19.1790452 C32.7793858,19.1790452 33.24022,19.1133063 33.5908426,18.9449532 L33.5908426,17.9989276 L33.5908426,17.9989276 Z M30.0999661,16.5449893 C30.2703632,16.7202565 30.3616908,16.941508 30.3616908,17.316077 C30.3616908,18.0990175 29.8694939,18.4644776 28.9869186,18.4644776 L27.2823956,18.4644776 L27.2823956,17.6840613 L28.9800718,17.6840613 C29.1460516,17.6840613 29.2637725,17.6622215 29.3375413,17.5939584 C29.3977269,17.5376578 29.440906,17.4558957 29.440906,17.356574 C29.440906,17.2505576 29.3941931,17.1663811 29.3341179,17.1158971 C29.2671959,17.0603648 29.1748745,17.0351228 29.0224779,17.0351228 C28.2040638,17.0073566 27.1791413,17.0603648 27.1791413,15.9086718 C27.1791413,15.3807851 27.5128679,14.8251322 28.4303397,14.8251322 L30.1847782,14.8251322 L30.1847782,15.5997319 L28.5794233,15.5997319 C28.4202903,15.5997319 28.3168152,15.6056583 28.2288007,15.6654708 C28.1329454,15.7244053 28.0973862,15.8118743 28.0973862,15.9273289 C28.0973862,16.0646234 28.1787748,16.1580187 28.2888759,16.1984059 C28.3811973,16.2303425 28.4803655,16.239671 28.6294492,16.239671 L29.1005535,16.252292 C29.5756334,16.2638156 29.9017401,16.3454679 30.0999661,16.5449893 L30.0999661,16.5449893 Z M22.2031708,16.3202259 C22.0861126,16.3892572 21.9413358,16.3951836 21.7710491,16.3951836 L20.707917,16.3951836 L20.707917,15.5777823 L21.7855157,15.5777823 C21.9413358,15.5777823 22.0972662,15.5810748 22.2031708,15.6435212 C22.3165848,15.7024558 22.3843903,15.8151667 22.3843903,15.9708988 C22.3843903,16.1266309 22.3165848,16.2520725 22.2031708,16.3202259 L22.2031708,16.3202259 Z M22.7317,16.7731549 C22.9265026,16.8446007 23.085746,16.9726763 23.1603983,17.0786926 C23.2839721,17.2563743 23.3018621,17.4222031 23.305396,17.7429958 L23.305396,18.4644776 L22.4267963,18.4644776 L22.4267963,18.0091341 C22.4267963,17.7901874 22.4479993,17.4659925 22.2853325,17.2967614 C22.1574518,17.1663811 21.9625388,17.1352127 21.6432789,17.1352127 L20.7080275,17.1352127 L20.7080275,18.4644776 L19.8286548,18.4644776 L19.8286548,14.8250225 L21.8491248,14.8250225 C22.2921793,14.8250225 22.6148626,14.8444478 22.9020971,14.9967777 C23.1782883,15.1626066 23.3519984,15.3897844 23.3519984,15.8049602 C23.351888,16.3858551 22.9620618,16.6822837 22.7317,16.7731549 L22.7317,16.7731549 Z M23.8372381,14.8250225 L26.7580629,14.8250225 L26.7580629,15.5776726 L24.70877,15.5776726 L24.70877,16.2393418 L26.708037,16.2393418 L26.708037,16.9818951 L24.70877,16.9818951 L24.70877,17.7060108 L26.7580629,17.7093033 L26.7580629,18.4644776 L23.8372381,18.4644776 L23.8372381,14.8250225 L23.8372381,14.8250225 Z M17.9327525,16.5046021 L16.801815,16.5046021 L16.801815,15.5777823 L17.9429123,15.5777823 C18.2588592,15.5777823 18.4781778,15.7057482 18.4781778,16.0240167 C18.4781778,16.3387733 18.269019,16.5046021 17.9327525,16.5046021 L17.9327525,16.5046021 Z M15.9301726,18.1334783 L14.5865424,16.6510056 L15.9301726,15.2156147 L15.9301726,18.1334783 L15.9301726,18.1334783 Z M12.4602782,17.7060108 L10.3086146,17.7060108 L10.3086146,16.9818951 L12.2299164,16.9818951 L12.2299164,16.2393418 L10.3086146,16.2393418 L10.3086146,15.5776726 L12.5026842,15.5776726 L13.4599117,16.6382749 L12.4602782,17.7060108 L12.4602782,17.7060108 Z M19.4177361,16.0240167 C19.4177361,17.035013 18.6587347,17.2437533 17.8937699,17.2437533 L16.801815,17.2437533 L16.801815,18.4644776 L15.1008257,18.4644776 L14.023227,17.2596667 L12.9033327,18.4644776 L9.43686178,18.4644776 L9.43686178,14.8250225 L12.9566715,14.8250225 L14.0333868,16.0179806 L15.1465447,14.8250225 L17.9429123,14.8250225 C18.6374212,14.8250225 19.4177361,15.0160933 19.4177361,16.0240167 L19.4177361,16.0240167 Z" id="EXPRESS" fill="#FFFFFF"></path>
                            <path d="M5.26152569,10.6309022 L4.66254071,9.18036611 L4.06697913,10.6309022 L5.26152569,10.6309022 Z M18.4570852,10.0532998 C18.3368244,10.125843 18.1945876,10.1282575 18.0241905,10.1282575 L16.9610584,10.1282575 L16.9610584,9.320075 L18.0386571,9.320075 C18.1911642,9.320075 18.3502971,9.32687936 18.4536618,9.38570416 C18.5671863,9.43871232 18.6374212,9.55153302 18.6374212,9.70737483 C18.6374212,9.86639933 18.5706097,9.99436522 18.4570852,10.0532998 L18.4570852,10.0532998 Z M26.041357,10.6309022 L25.4357461,9.18036611 L24.8334482,10.6309022 L26.041357,10.6309022 L26.041357,10.6309022 Z M11.9038097,12.2009536 L11.0066574,12.2009536 L11.0033444,9.35124336 L9.73436649,12.2009536 L8.96597831,12.2009536 L7.6936874,9.34871916 L7.6936874,12.2009536 L5.91373905,12.2009536 L5.57747259,11.3893689 L3.75533909,11.3893689 L3.41564923,12.2009536 L2.46515814,12.2009536 L4.03230338,8.56237649 L5.33253368,8.56237649 L6.82094067,12.0073586 L6.82094067,8.56237649 L8.24927247,8.56237649 L9.3945662,11.0307133 L10.446655,8.56237649 L11.9036992,8.56237649 L11.9036992,12.2009536 L11.9038097,12.2009536 Z M15.4794982,12.2009536 L12.556023,12.2009536 L12.556023,8.56237649 L15.4794982,8.56237649 L15.4794982,9.320075 L13.4311993,9.320075 L13.4311993,9.97592759 L15.4303558,9.97592759 L15.4303558,10.7217733 L13.4311993,10.7217733 L13.4311993,11.4484132 L15.4794982,11.4484132 L15.4794982,12.2009536 L15.4794982,12.2009536 Z M19.6014955,9.54231421 C19.6014955,10.1224408 19.2118902,10.422162 18.9848413,10.5121551 C19.176331,10.5845886 19.3398813,10.7125545 19.4177361,10.8185709 C19.5413099,10.9995449 19.5626233,11.1612034 19.5626233,11.4861665 L19.5626233,12.2009536 L18.6799377,12.2009536 L18.6766247,11.7420982 C18.6766247,11.5231515 18.6977173,11.2082851 18.5384738,11.0332375 C18.4105932,10.9052716 18.2156801,10.8775054 17.9006167,10.8775054 L16.9611688,10.8775054 L16.9611688,12.2009536 L16.086103,12.2009536 L16.086103,8.56237649 L18.0989532,8.56237649 C18.5462041,8.56237649 18.8757342,8.5741195 19.1586618,8.73665593 C19.4355157,8.89919235 19.6014955,9.136467 19.6014955,9.54231421 L19.6014955,9.54231421 Z M21.0019983,12.2009536 L20.1090425,12.2009536 L20.1090425,8.56237649 L21.0019983,8.56237649 L21.0019983,12.2009536 L21.0019983,12.2009536 Z M31.3614347,12.2009536 L30.1212796,12.2009536 L28.4624755,9.46999043 L28.4624755,12.2009536 L26.6802081,12.2009536 L26.3396347,11.3893689 L24.5216977,11.3893689 L24.1912841,12.2009536 L23.1672451,12.2009536 C22.7418598,12.2009536 22.2032813,12.1074485 21.8982672,11.7985086 C21.5907131,11.4895686 21.4306967,11.0711005 21.4306967,10.4094312 C21.4306967,9.86980151 21.5263311,9.37648535 21.9024636,8.98666131 C22.1853912,8.69626875 22.6284457,8.56237649 23.2315167,8.56237649 L24.0787536,8.56237649 L24.0787536,9.34202455 L23.2492963,9.34202455 C22.929926,9.34202455 22.74959,9.38921609 22.57588,9.55756914 C22.4266859,9.71077701 22.3243151,10.0004013 22.3243151,10.3817748 C22.3243151,10.7715988 22.4022803,11.0526628 22.5649472,11.2362708 C22.6996746,11.3802599 22.9445031,11.4239395 23.1748649,11.4239395 L23.5678936,11.4239395 L24.8013123,8.56248624 L26.1125859,8.56248624 L27.5942565,12.0040661 L27.5942565,8.56248624 L28.926733,8.56248624 L30.4650554,11.0965619 L30.4650554,8.56248624 L31.3614347,8.56248624 L31.3614347,12.2009536 L31.3614347,12.2009536 Z M2.45499836,12.915631 L3.95025216,12.915631 L4.28740207,12.1074485 L5.04220707,12.1074485 L5.37847353,12.915631 L8.32050132,12.915631 L8.32050132,12.2977511 L8.58310941,12.9182649 L10.1103886,12.9182649 L10.3729967,12.2885323 L10.3729967,12.915631 L17.6845006,12.915631 L17.6810772,11.5890001 L17.822541,11.5890001 C17.9215988,11.5924023 17.9505321,11.6015114 17.9505321,11.7640478 L17.9505321,12.915631 L21.7320665,12.915631 L21.7320665,12.6068008 C22.0370806,12.7692275 22.5114979,12.915631 23.1357719,12.915631 L24.7266601,12.915631 L25.067123,12.1074485 L25.821928,12.1074485 L26.1548815,12.915631 L29.2205935,12.915631 L29.2205935,12.1479454 L29.684851,12.915631 L32.1415287,12.915631 L32.1415287,7.84089474 L29.7102504,7.84089474 L29.7102504,8.44022724 L29.3697875,7.84089474 L26.8750107,7.84089474 L26.8750107,8.44022724 L26.5623768,7.84089474 L23.1925341,7.84089474 C22.6284457,7.84089474 22.1326046,7.91914489 21.7320665,8.13721368 L21.7320665,7.84089474 L19.4065824,7.84089474 L19.4065824,8.13721368 C19.1517046,7.91245027 18.8043949,7.84089474 18.418213,7.84089474 L9.92232232,7.84089474 L9.35227061,9.15161219 L8.76686881,7.84089474 L6.09087251,7.84089474 L6.09087251,8.44022724 L5.79690164,7.84089474 L3.51470703,7.84089474 L2.45488793,10.2536992 L2.45488793,12.915631 L2.45499836,12.915631 Z" id="AMERICAN" fill="#FFFFFF"></path>
                        </g>
                    </g>
                </g>
            </g>
        </g>
    </g>
</svg>