<svg width="108px" height="67px" viewBox="0 0 108 67">
    <defs>
        <path d="M283.994913,0 C285.654577,0 287,1.33460105 287,3.00355406 L287,168.996446 C287,170.655263 285.656552,172 283.994913,172 L276.045,172 L266.5,182 L256.955,172 L3.00508723,172 C1.34542338,172 0,170.665399 0,168.996446 L0,3.00355406 C0,1.34473696 1.34344821,0 3.00508723,0 L283.994913,0 Z" id="path-1"></path>
        <filter x="-2.4%" y="-2.7%" width="104.9%" height="107.7%" filterUnits="objectBoundingBox" id="filter-2">
            <feOffset dx="0" dy="2" in="SourceAlpha" result="shadowOffsetOuter1"></feOffset>
            <feGaussianBlur stdDeviation="2" in="shadowOffsetOuter1" result="shadowBlurOuter1"></feGaussianBlur>
            <feComposite in="shadowBlurOuter1" in2="SourceAlpha" operator="out" result="shadowBlurOuter1"></feComposite>
            <feColorMatrix values="0 0 0 0 0   0 0 0 0 0   0 0 0 0 0  0 0 0 0.2 0" type="matrix" in="shadowBlurOuter1"></feColorMatrix>
        </filter>
    </defs>
    <g stroke="none" stroke-width="1" fill="none" fill-rule="evenodd">
        <g transform="translate(-98.000000, -104.000000)">
            <g id="Group" transform="translate(78.000000, 84.000000)">
                <g id="Rectangle-53">
                    <use fill="black" fill-opacity="1" filter="url(#filter-2)" xlink:href="#path-1"></use>
                    <path stroke="#CCCCCC" stroke-width="1" d="M283.994913,0.5 L3.00508723,0.5 C2.31269046,0.5 1.68650505,0.779982628 1.23337709,1.2328794 C0.780062178,1.68596304 0.5,2.31202979 0.5,3.00355406 L0.5,168.996446 C0.5,169.690865 0.779047606,170.316086 1.23114973,170.767958 C1.68477266,171.221349 2.31219031,171.5 3.00508723,171.5 L257.168957,171.5 L266.5,181.275844 L275.831043,171.5 L283.994913,171.5 C284.68731,171.5 285.313495,171.220017 285.766623,170.767121 C286.219938,170.314037 286.5,169.68797 286.5,168.996446 L286.5,3.00355406 C286.5,2.30913469 286.220952,1.68391366 285.76885,1.23204219 C285.315227,0.778650692 284.68781,0.5 283.994913,0.5 Z" stroke-linejoin="square" fill="#FFFFFF" fill-rule="evenodd"></path>
                </g>
                <g transform="translate(20.000000, 20.000000)">
                    <rect fill="#FFEEA1" x="0" y="0" width="108" height="67" rx="3"></rect>
                    <rect fill="#000000" x="0" y="11" width="108" height="14"></rect>
                    <rect fill="#FFFFFF" x="10" y="36" width="61" height="14"></rect>
                    <path d="M22.8015788,47.9469777 C23.4111355,47.3947887 23.89411,46.7153462 24.3784857,46.0627178 C25.612079,44.2193607 26.6798543,42.2801091 27.8209631,40.3831238 C27.9550189,40.1631571 28.0867392,39.941827 28.2198608,39.7214058 C28.0367602,40.6539918 27.8041478,41.5774883 27.5710682,42.4991668 C27.2455042,43.8039691 26.8162455,45.0846841 26.5429959,46.4008484 C26.448176,46.9544008 26.4547153,47.5156794 26.4491102,48.0737767 C26.4822738,48.2710195 26.6116586,48.4241782 26.8414685,48.3014695 C28.2516231,47.5406757 28.2282685,47.5738524 29.0643655,46.804878 C29.0849176,46.78579 29.1050026,46.766702 29.1260218,46.747614 C29.3011817,46.9384942 29.5048344,47.3479776 29.6132001,47.5274958 C29.8747723,47.9192547 30.0933719,48.0546887 30.5763464,48.0356007 C31.1256481,47.9060748 31.6768182,47.8024542 32.2396656,47.7442812 C32.552151,47.7197394 32.4769489,47.7247387 32.6535102,47.7151947 C32.5451446,47.7992728 32.4395815,47.8865323 32.3242094,47.9628844 L34.5134756,47.1080139 C35.0856649,46.7035298 35.5527582,46.1872444 36.012378,45.6677776 C36.3342052,46.3017725 36.4350974,47.0266626 36.5168387,47.7233752 C36.5495352,47.8360854 36.5616797,47.9569762 36.6125928,48.0628693 C36.8652903,48.5996061 37.4267364,48.4096349 37.8359101,48.1769429 C38.6411789,47.7206484 39.4338362,47.2439024 40.2320987,46.777155 C40.2858144,46.7389789 40.339063,46.7017119 40.3927787,46.6644448 C40.4399552,46.6676261 40.4880658,46.6685351 40.534308,46.6826238 C40.7524406,46.7512498 40.9528236,46.9298591 41.1508711,47.0389335 C41.4521463,47.2029995 41.4068382,47.1716407 41.7492176,47.3048023 C42.5507497,47.5147705 43.3639591,47.2861688 44.1720305,47.2448114 C45.3005278,47.2820785 46.4243542,47.387517 47.5533187,47.4147856 C48.0942127,47.4079685 48.6477182,47.4575064 49.1680602,47.2879867 L51,45.8627481 C50.5305713,46.1740645 49.9312906,46.087714 49.3913307,46.1190729 C48.2670372,46.1199818 47.1483488,46.0136343 46.0287262,45.9236479 C45.6298286,45.9254658 45.6190854,45.912286 45.231398,45.9663687 C44.7124574,46.038176 44.194918,46.1663384 43.668971,46.048629 C43.3905834,45.9477352 43.128077,45.8377519 42.8781821,45.6782306 C42.6707927,45.5464324 42.6862067,45.515528 42.4657387,45.4028178 C42.3863329,45.3610059 42.3003877,45.3314649 42.2181793,45.2955613 C41.0896819,45.3664596 41.9893036,45.272383 39.682797,46.5399182 C39.3684432,46.7126193 39.0737073,46.9162248 38.7827082,47.1230117 C38.6360409,47.0525678 38.5846607,46.8321466 38.5472932,46.6848962 C38.41604,45.7995758 38.2945957,44.8756249 37.7910692,44.1057416 C37.7097949,44.0280261 37.6560792,43.8366914 37.5491149,43.8730495 C35.4158999,44.6079382 35.3841375,44.8129071 34.2803961,46.1222542 C34.0753421,46.3481291 33.8679527,46.573095 33.6572937,46.7944251 C33.6264655,46.7971519 33.5895651,46.7998788 33.54379,46.8030601 C32.987949,46.854416 32.4339764,46.923042 31.8972862,47.0802909 C31.4670933,47.1611877 31.2849269,47.0811998 31.0336307,46.727617 C30.8706152,46.4644751 30.644542,45.9786396 30.429212,45.7804878 C30.3811014,45.7364036 30.3208464,45.7086805 30.2666636,45.6727769 C29.4048765,45.6364187 28.5767201,46.4458415 27.910178,47.087108 C27.9092438,46.6285411 27.9195198,46.1686108 27.9928535,45.7150432 C28.2128544,44.4238752 28.561306,43.1599758 28.8756598,41.8897137 C29.1433042,40.8307832 29.4315008,39.7741251 29.6659816,38.7074686 C29.6771918,38.6574761 29.9018637,37.5580973 29.9060675,37.3899409 C29.9088701,37.2581427 29.8626279,37.1299803 29.8406745,37 C29.3371479,37.2663233 28.8102667,37.4931071 28.331029,37.7985154 C28.2427484,37.8548705 28.2221963,37.9748523 28.1703489,38.0643842 C28.075529,38.2298137 27.98538,38.3970611 27.8919613,38.562945 C27.439815,39.3664596 26.9750572,40.1631571 26.5000234,40.9544008 C25.3626512,42.8695652 24.2771264,44.8179064 22.9902845,46.6458112 C22.5530852,47.2052719 22.1219581,47.7610968 21.6034845,48.2546584 C21.5016582,48.3510074 21.3979635,48.4446296 21.2872624,48.5300712 C21.2120603,48.5891532 20.9630996,48.7327678 21.0471764,48.6873201 C21.4698958,48.4614452 21.8837405,48.2205726 22.301789,47.9869717 L21,49 C21.4554159,48.5246175 22.2887104,48.4114528 22.8015788,47.9469777 L22.8015788,47.9469777 Z M41.8346957,45.7327678 C41.7048438,45.8082109 41.5946097,45.8691107 41.4778364,45.9345554 C41.4848428,45.9300106 41.4913821,45.9250114 41.4979214,45.9213755 C41.6090896,45.855022 41.9453968,45.669141 41.8346957,45.7327678 L41.8346957,45.7327678 Z M39.6183381,46.7785184 C39.8392732,46.6653537 39.207296,47.0725648 38.9662759,47.1348281 C38.9625391,47.135737 38.9611378,47.1330101 38.9564669,47.1339191 C39.1769349,47.0143918 39.3955346,46.8921376 39.6183381,46.7785184 L39.6183381,46.7785184 Z M37.4893269,44.1311922 C37.3875006,44.1920921 37.3048251,44.233904 37.2109393,44.2861688 C37.2212154,44.2761703 37.2398991,44.2557188 37.2469055,44.2493562 C37.3169695,44.19391 37.5663973,44.0848356 37.4893269,44.1311922 L37.4893269,44.1311922 Z M27.9470783,47.4597788 C27.9335326,47.4497803 27.9283946,47.4329647 27.9241908,47.4161491 C27.9933206,47.378882 28.060582,47.3370701 28.1315802,47.3034389 C28.2334065,47.2543554 27.9582886,47.4679594 27.9470783,47.4597788 L27.9470783,47.4597788 Z" id="Shape" fill="#0052A9"></path>
                    <text id="123" font-family="Arial-BoldMT, Arial" font-size="11" font-weight="bold" fill="#000000">
                        <tspan x="80" y="47">123</tspan>
                    </text>
                    <ellipse id="Oval-76" stroke="#F94C45" stroke-width="2" cx="89.5" cy="43" rx="15.5" ry="8"></ellipse>
                </g>
            </g>
        </g>
    </g>
</svg>